<?xml version="1.0" encoding="UTF-8" standalone="no"?>
<!-- Created with Inkscape (http://www.inkscape.org/) -->

<svg
   width="67.41037mm"
   height="67.300095mm"
   viewBox="0 0 67.41037 67.300095"
   version="1.1"
   id="svg1"
   xmlns="http://www.w3.org/2000/svg"
   xmlns:svg="http://www.w3.org/2000/svg">
  <defs
     id="defs1" />
  <g
     id="layer1"
     transform="translate(-64.266939,-103.5541)">
    <circle
       style="fill:none;stroke:#2f9e73;stroke-width:2.11667;stroke-linecap:round;stroke-linejoin:round;stroke-dasharray:42.3333, 8.46667;stroke-dashoffset:0;stroke-opacity:1"
       id="path1"
       cx="97.895912"
       cy="137.2751"
       r="32.754646" />
  </g>
  <g
     id="g1"
     style="display:inline"
     transform="translate(-64.266939,-103.5541)">
    <path
       style="fill:#000000;fill-opacity:0;stroke:#2f9e73;stroke-width:2.11667;stroke-linecap:round;stroke-linejoin:round;stroke-dasharray:none;stroke-dashoffset:0;stroke-opacity:1"
       d="m 65.325279,138.7472 c 36.140491,0.55983 26.824431,-20.48145 22.403809,-32.47861"
       id="path29" />
    <path
       style="fill:#000000;fill-opacity:0;stroke:#2f9e73;stroke-width:2.11667;stroke-linecap:round;stroke-linejoin:round;stroke-dasharray:none;stroke-dashoffset:0;stroke-opacity:1"
       d="m 95.595725,104.61245 c 4.475395,47.35914 19.777175,28.26305 33.122675,21.80576"
       id="path30" />
    <path
       style="fill:#000000;fill-opacity:0;stroke:#2f9e73;stroke-width:2.11667;stroke-linecap:round;stroke-linejoin:round;stroke-dasharray:none;stroke-dashoffset:0;stroke-opacity:1"
       d="m 66.619922,146.68872 c 38.417888,-18.42424 31.748046,26.9609 31.985098,22.86521"
       id="path31" />
    <path
       style="fill:#000000;fill-opacity:0;stroke:#2f9e73;stroke-width:2.11667;stroke-linecap:round;stroke-linejoin:round;stroke-dasharray:none;stroke-dashoffset:0;stroke-opacity:1"
       d="m 130.61898,134.60688 c -40.77302,5.62405 -23.43372,34.80038 -23.79835,34.18076"
       id="path32" />
    <path
       style="fill:#2f9e73;fill-opacity:1;stroke:#2f9e73;stroke-width:2.78196;stroke-linecap:round;stroke-linejoin:round;stroke-dasharray:none;stroke-dashoffset:0;stroke-opacity:1"
       d="m 250.48883,514.61293 c 0.99817,-26.00566 10.00122,-50.27588 26.16796,-70.54303 3.75885,-4.71222 13.78035,-14.76429 18.23066,-18.28628 7.46589,-5.90854 13.48693,-9.78005 21.50338,-13.82662 6.06646,-3.06226 12.12674,-5.5178 12.5339,-5.07856 0.16852,0.18179 1.71896,4.24266 3.44541,9.02415 8.67996,24.03952 11.6508,36.88267 11.66369,50.42297 0.006,6.83288 -0.54175,11.00906 -2.09999,15.99625 -5.85137,18.72747 -23.40415,30.3785 -53.13192,35.26743 -9.01777,1.48304 -17.64255,2.21197 -31.44012,2.65717 l -7.09799,0.22904 z"
       id="path37"
       transform="scale(0.26458333)" />
    <path
       style="fill:#2f9e73;fill-opacity:1;stroke:#2f9e73;stroke-width:2.78196;stroke-linecap:round;stroke-linejoin:round;stroke-dasharray:none;stroke-dashoffset:0;stroke-opacity:1"
       d="m 407.17989,508.06792 c -17.25001,-4.37289 -29.49399,-29.45722 -37.00936,-75.82134 -1.90406,-11.74658 -4.52841,-32.44479 -4.16039,-32.81282 0.0778,-0.0778 2.81799,-0.12055 6.08937,-0.0951 24.75913,0.19292 49.42242,8.64381 69.71005,23.88618 4.91144,3.69003 9.01508,7.33846 13.91478,12.37123 10.71306,11.00403 18.35411,22.51898 24.7022,37.22581 l 1.15299,2.67118 -5.10584,2.8609 c -2.80821,1.5735 -10.11336,5.9402 -16.23366,9.70378 -21.07606,12.96037 -28.42919,16.72301 -37.78861,19.33664 -4.04914,1.13072 -12.07213,1.48455 -15.27153,0.6735 z"
       id="path38"
       transform="scale(0.26458333)" />
    <path
       style="fill:#2f9e73;fill-opacity:1;stroke:#2f9e73;stroke-width:2.78196;stroke-linecap:round;stroke-linejoin:round;stroke-dasharray:none;stroke-dashoffset:0;stroke-opacity:1"
       d="m 405.46799,632.09085 c -4.20951,-8.90606 -7.35063,-18.72333 -9.08881,-28.40616 -0.71243,-3.96874 -0.81201,-5.62457 -0.81558,-13.56204 -0.004,-8.06412 0.0822,-9.46736 0.79443,-12.98263 2.62341,-12.9487 8.48077,-23.58436 18.04341,-32.76281 15.20461,-14.59375 38.15786,-24.35634 70.61539,-30.0345 l 4.60762,-0.80606 v 4.94595 c 0,32.60657 -12.90997,63.2366 -36.20696,85.90423 -12.88517,12.53706 -26.8668,21.25413 -43.81543,27.31741 l -3.69244,1.32095 z"
       id="path39"
       transform="scale(0.26458333)" />
    <path
       style="fill:#2f9e73;fill-opacity:1;stroke:#2f9e73;stroke-width:2.78196;stroke-linecap:round;stroke-linejoin:round;stroke-dasharray:none;stroke-dashoffset:0;stroke-opacity:1"
       d="m 359.9157,638.05312 c -25.02633,-2.48514 -45.8105,-10.87871 -65.20212,-26.33154 -4.59452,-3.66128 -14.22957,-13.33257 -18.0536,-18.12149 -6.2317,-7.80409 -12.17178,-17.60609 -16.12128,-26.60246 -2.18652,-4.98056 -4.09286,-10.02129 -3.86584,-10.22199 0.35157,-0.31081 8.71919,-3.87384 13.04302,-5.55387 10.10189,-3.92511 19.72629,-6.66371 29.00288,-8.2527 3.95967,-0.67825 5.95868,-0.80556 12.86043,-0.81898 7.12634,-0.0139 8.66252,0.0836 12.00541,0.76182 10.47054,2.12424 17.45164,5.8259 24.70268,13.09835 11.57258,11.60676 17.99101,28.14385 20.73053,53.41222 0.48203,4.44611 0.62058,25.46875 0.18162,27.55876 l -0.27389,1.30404 -3.89636,-0.0556 c -2.14301,-0.0306 -4.44407,-0.11004 -5.11348,-0.17651 z"
       id="path40"
       transform="scale(0.26458333)" />
  </g>
</svg>
